<svg width="16" height="17" viewBox="0 0 16 17" fill="none" xmlns="http://www.w3.org/2000/svg">
<g clip-path="url(#clip0_2206_2872)">
<path d="M14.815 0.875732H1.181C0.53 0.875732 0 1.39223 0 2.02823V15.7202C0 16.3577 0.53 16.8752 1.181 16.8752H14.816C15.4685 16.8752 16 16.3577 16 15.7202V2.02823C16 1.39223 15.4685 0.875732 14.815 0.875732Z" fill="#0177B5"/>
<path d="M2.37248 6.87349H4.74998V14.5085H2.37248V6.87349ZM3.55948 3.07349C4.31798 3.07349 4.93448 3.68999 4.93448 4.44849C4.93448 5.20699 4.31798 5.82499 3.55998 5.82499C3.19511 5.8242 2.8454 5.67893 2.58735 5.42098C2.3293 5.16302 2.18391 4.81336 2.18298 4.44849C2.18298 4.26779 2.2186 4.08887 2.28779 3.92195C2.35699 3.75503 2.4584 3.60338 2.58624 3.47568C2.71408 3.34798 2.86584 3.24673 3.03283 3.17772C3.19983 3.10871 3.37879 3.07329 3.55948 3.07349ZM6.23448 6.87349H8.51048V7.91699H8.54198C8.85898 7.31699 9.63298 6.68399 10.792 6.68399C13.195 6.68399 13.6385 8.26549 13.6385 10.321V14.509H11.267V10.795C11.267 9.90999 11.251 8.76999 10.034 8.76999C8.79898 8.76999 8.60898 9.73499 8.60898 10.73V14.507H6.23798V6.87199L6.23448 6.87349Z" fill="white"/>
</g>
<defs>
<clipPath id="clip0_2206_2872">
<rect width="16" height="16" fill="white" transform="translate(0 0.875)"/>
</clipPath>
</defs>
</svg>
