<svg width="24" height="24" viewBox="0 0 24 24" fill="none" xmlns="http://www.w3.org/2000/svg">
<path d="M12 6.43994V9.76994" stroke="white" stroke-width="1.5" stroke-miterlimit="10" stroke-linecap="round"/>
<path d="M20.59 15.17C21.32 16.39 20.74 17.97 19.39 18.42C14.61 20.01 9.44 20.01 4.66 18.42C3.22 17.94 2.67 16.48 3.46 15.17L4.73 13.05C5.08 12.47 5.36 11.44 5.36 10.77V8.67C5.36 4.98 8.34 2 12.02 2C15.68 2 18.68 5 18.68 8.66V10.76C18.68 10.94 18.7 11.14 18.73 11.35" stroke="white" stroke-width="1.5" stroke-miterlimit="10" stroke-linecap="round"/>
<path d="M15.33 18.8198C15.33 20.6498 13.83 22.1498 12 22.1498C11.09 22.1498 10.25 21.7698 9.65 21.1698C9.05 20.5698 8.67 19.7298 8.67 18.8198" stroke="white" stroke-width="1.5" stroke-miterlimit="10"/>
<circle cx="17" cy="4" r="4" fill="#30866D"/>
</svg>
